<svg version="1.1" id="Layer_1" xmlns="http://www.w3.org/2000/svg" xmlns:xlink="http://www.w3.org/1999/xlink" x="0px" y="0px" viewBox="0 0 500 500" style="width: 187px;" xml:space="preserve" data-imageid="marketing-campaign-70" imageName="Marketing Campaign" class="illustrations_image">
<style type="text/css">
	.st0_marketing-campaign-70{fill:#FFFFFF;}
	.st1_marketing-campaign-70{fill:#093F68;}
	.st2_marketing-campaign-70{fill:#68E1FD;}
	.st3_marketing-campaign-70{fill:#F56132;}
	.st4_marketing-campaign-70{fill:#FFBC0E;}
	.st5_marketing-campaign-70{fill:#70CC40;}
	.st6_marketing-campaign-70{fill:#DFEAEF;}
</style>
<g id="screen_marketing-campaign-70">
	<path class="st0_marketing-campaign-70" d="M441.3,171.1v209.7c0,5.5-4.4,9.9-9.9,9.9c0,0,0,0,0,0h-363c-5.5,0-9.9-4.4-9.9-9.9V171.1H441.3z"/>
	<path class="st1_marketing-campaign-70" d="M431.4,392.5h-363c-6.5,0-11.7-5.2-11.7-11.7V171.1c0-1,0.8-1.8,1.8-1.8h0h382.8c1,0,1.8,0.8,1.8,1.8v209.7&#xA;&#9;&#9;C443.1,387.3,437.9,392.5,431.4,392.5z M60.4,172.9v207.9c0,4.4,3.6,8,8,8h363c4.4,0,8-3.5,8-7.9c0,0,0,0,0-0.1V172.9H60.4z"/>
	<path class="st2_marketing-campaign-70 targetColor" d="M63.9,143.1h372c3,0,5.4,2.4,5.4,5.4v0v22.6l0,0H58.5l0,0v-22.6C58.5,145.5,61,143.1,63.9,143.1z" style="fill: rgb(104, 225, 253);"/>
	<path class="st1_marketing-campaign-70" d="M441.3,172.9H58.5c-1,0-1.8-0.8-1.8-1.8l0,0V153c0-6.5,5.2-11.7,11.7-11.7h363c6.5,0,11.7,5.2,11.7,11.7v18.1&#xA;&#9;&#9;C443.1,172.1,442.3,172.9,441.3,172.9z M60.4,169.2h379.1V153c0-4.4-3.6-8-8-8h-363c-4.4,0-8,3.6-8,8L60.4,169.2z"/>
	<circle class="st3_marketing-campaign-70" cx="79.5" cy="155.7" r="4.3"/>
	<path class="st1_marketing-campaign-70" d="M79.5,151.4c2.4,0,4.3,1.9,4.3,4.3s-1.9,4.3-4.3,4.3s-4.3-1.9-4.3-4.3c0,0,0,0,0,0&#xA;&#9;&#9;C75.2,153.3,77.1,151.4,79.5,151.4C79.5,151.4,79.5,151.4,79.5,151.4 M79.5,147.7c-4.4,0-8,3.6-8,8s3.6,8,8,8s8-3.6,8-8&#xA;&#9;&#9;S83.9,147.7,79.5,147.7z"/>
	<circle class="st4_marketing-campaign-70" cx="99.3" cy="155.7" r="4.3"/>
	<path class="st1_marketing-campaign-70" d="M99.3,151.4c2.4,0,4.3,1.9,4.3,4.3s-1.9,4.3-4.3,4.3c-2.4,0-4.3-1.9-4.3-4.3C95,153.3,96.9,151.4,99.3,151.4&#xA;&#9;&#9;C99.3,151.4,99.3,151.4,99.3,151.4 M99.3,147.7c-4.4,0-8,3.6-8,8s3.6,8,8,8s8-3.6,8-8S103.7,147.7,99.3,147.7z"/>
	<circle class="st5_marketing-campaign-70" cx="119.1" cy="155.7" r="4.3"/>
	<path class="st1_marketing-campaign-70" d="M119.1,151.4c2.4,0,4.3,1.9,4.3,4.3s-1.9,4.3-4.3,4.3c-2.4,0-4.3-1.9-4.3-4.3&#xA;&#9;&#9;C114.8,153.3,116.7,151.4,119.1,151.4C119.1,151.4,119.1,151.4,119.1,151.4 M119.1,147.7c-4.4,0-8,3.6-8,8s3.6,8,8,8s8-3.6,8-8&#xA;&#9;&#9;S123.5,147.7,119.1,147.7z"/>
</g>
<g id="earth_marketing-campaign-70">
	<path class="st2_marketing-campaign-70 targetColor" d="M406.7,390.7H93.1c2.5-5,5.2-9.9,8.2-14.7c31.8-51.5,88.1-82.8,148.6-82.7c2.3,0,4.6,0,7,0.1&#xA;&#9;&#9;C320.9,296,378.4,333.3,406.7,390.7L406.7,390.7z" style="fill: rgb(104, 225, 253);"/>
	<path class="st1_marketing-campaign-70" d="M406.7,392.5H93.1c-1,0-1.8-0.8-1.8-1.9c0-0.3,0.1-0.5,0.2-0.8c2.4-5,5.2-10,8.2-14.8&#xA;&#9;&#9;c32.2-52,89-83.7,150.2-83.6c2.6,0,4.9,0,7,0.1c64.6,2.6,122.7,40.3,151.4,98.3c0.4,0.9,0.1,2-0.8,2.5&#xA;&#9;&#9;C407.2,392.4,406.9,392.5,406.7,392.5L406.7,392.5z M96.1,388.8h307.6c-28.6-55.4-84.7-91.1-146.9-93.6c-2.1-0.1-4.3-0.1-6.9-0.1&#xA;&#9;&#9;C190,295,134.3,326,102.8,377C100.4,380.9,98.2,384.8,96.1,388.8z"/>
	<path class="st5_marketing-campaign-70" d="M196.8,309c-0.3,11.2-5.1,21.7-13.4,29.3c-7.1,6.4-16.6,10.5-21.3,18.9c-5.5,9.9-2.7,23.5-6.7,33.5h-41.5&#xA;&#9;&#9;c-4.3-3.8-8.4-7.8-11.4-12.6c-0.4-0.7-0.8-1.4-1.2-2c21.8-35.2,55.5-61.5,94.9-74.3C196.6,304.1,196.8,306.6,196.8,309z"/>
	<path class="st1_marketing-campaign-70" d="M155.4,392.5h-41.5c-0.4,0-0.9-0.2-1.2-0.5c-4.2-3.8-8.6-7.9-11.7-13.1c-0.4-0.7-0.8-1.4-1.2-2.1&#xA;&#9;&#9;c-0.3-0.6-0.3-1.3,0-1.9c22.1-35.6,56-62.2,95.8-75.1c0.5-0.2,1-0.1,1.5,0.2c0.4,0.3,0.8,0.7,0.9,1.2c0.5,2.6,0.7,5.2,0.7,7.8&#xA;&#9;&#9;c-0.3,11.7-5.4,22.7-14,30.6c-2.5,2.2-5.2,4.3-8,6.1c-5.2,3.7-10.1,7.1-12.9,12.2s-3.3,11.5-3.8,17.6c-0.4,5.3-0.9,10.9-2.8,15.6&#xA;&#9;&#9;C156.7,392,156.1,392.5,155.4,392.5z M114.5,388.8h39.6c1.4-4,1.7-8.6,2.1-13.4c0.5-6.6,1.1-13.4,4.3-19.1s8.7-9.7,14-13.5&#xA;&#9;&#9;c2.7-1.8,5.2-3.8,7.7-5.9c7.9-7.2,12.5-17.3,12.8-27.9l0,0c0-1.6-0.1-3.3-0.3-4.9c-37.8,12.8-70,38.2-91.3,72l0.6,1&#xA;&#9;&#9;C106.8,381.6,110.7,385.4,114.5,388.8z"/>
	<path class="st5_marketing-campaign-70" d="M406.7,390.7h-35.1c-2.8-3.7-6.1-7.1-9.8-10c-4-3-9-5.8-10-10.7c-2-9.5-0.2-11.7-10.1-14.5&#xA;&#9;&#9;c-5.8-1.6-11.7-2.5-17.6-1.5c-7.2,1.2-12.3,3.8-19.4-0.6c-6-3.9-9.4-10.8-8.9-17.9c0.6-7.5,5.6-15,3-22c-0.9-2.4-2.7-4.6-2.7-7.2&#xA;&#9;&#9;c-0.1-12,25.2,2.2,29.7,4.4C361,327.6,389.4,355.7,406.7,390.7L406.7,390.7z"/>
	<path class="st1_marketing-campaign-70" d="M406.7,392.5h-35.1c-0.6,0-1.1-0.3-1.4-0.7c-2.7-3.6-5.9-6.9-9.4-9.7c-0.6-0.5-1.3-1-2-1.5&#xA;&#9;&#9;c-3.6-2.6-7.7-5.6-8.7-10.4c-0.4-1.8-0.6-3.3-0.8-4.6c-0.9-5.5-1-6.5-7.9-8.4c-6.6-1.9-12-2.3-16.8-1.5c-1.4,0.2-2.7,0.5-4,0.8&#xA;&#9;&#9;c-5.3,1.2-10.4,2.3-16.7-1.7c-6.6-4.3-10.3-11.8-9.8-19.6c0.4-2.9,1-5.8,1.9-8.5c1.3-4.5,2.6-8.8,1.1-12.6c-0.3-0.7-0.6-1.5-1-2.2&#xA;&#9;&#9;c-1.1-1.7-1.7-3.6-1.8-5.6c0-3.2,1.5-4.8,2.7-5.6c5.4-3.3,17.1,1.9,27.9,7.4c0.8,0.4,1.4,0.7,1.8,0.9&#xA;&#9;&#9;c35.5,17.2,64.2,45.6,81.7,80.9c0.4,0.9,0.1,2-0.8,2.5C407.3,392.4,407,392.5,406.7,392.5L406.7,392.5z M372.5,388.8h31.2&#xA;&#9;&#9;c-17.3-33.4-44.9-60.2-78.7-76.6c-0.4-0.2-1.1-0.5-1.9-0.9c-13.2-6.8-21.4-9.3-24.3-7.5c-0.3,0.2-1,0.6-1,2.4&#xA;&#9;&#9;c0.2,1.4,0.6,2.8,1.4,4c0.4,0.8,0.9,1.7,1.2,2.6c1.9,5,0.4,10.1-1,15c-0.9,2.5-1.5,5.2-1.8,7.8c-0.5,6.5,2.6,12.7,8.1,16.2&#xA;&#9;&#9;c5,3.2,8.8,2.4,14,1.2c1.3-0.3,2.7-0.6,4.1-0.8c5.4-0.9,11.2-0.4,18.4,1.6c8.7,2.4,9.5,4.8,10.6,11.4c0.2,1.3,0.4,2.7,0.8,4.5&#xA;&#9;&#9;c0.7,3.4,3.9,5.7,7.2,8.1c0.7,0.5,1.4,1,2.1,1.5C366.5,382,369.7,385.3,372.5,388.8z"/>
	<path class="st5_marketing-campaign-70" d="M204.9,355.3c-0.4-12.8-13-3.3-16.2,1.8c-2.5,3.9-11.1,9-5.8,13.7c2.7,2.4,6.9,2.6,10.3,1.2s6-4.1,8.1-7.1&#xA;&#9;&#9;S205,358.8,204.9,355.3z"/>
	<path class="st1_marketing-campaign-70" d="M188.9,374.7c-2.6,0-5.1-0.9-7.1-2.5c-1.4-1.1-2.2-2.7-2.3-4.5c-0.1-3.2,2.6-6,5.1-8.5c1-0.9,1.9-2,2.7-3.1&#xA;&#9;&#9;c2.4-3.8,9.8-10.2,15-8.8c2,0.5,4.4,2.4,4.6,7.9l0,0c0.1,3.3-1.2,6.8-3.9,10.7s-5.7,6.4-8.9,7.7&#xA;&#9;&#9;C192.3,374.3,190.6,374.7,188.9,374.7z M200.5,350.7c-3.1,0-8.3,4.3-10.3,7.3c-0.9,1.3-2,2.6-3.2,3.7c-1.8,1.9-4.1,4.1-4,5.8&#xA;&#9;&#9;c0,0.2,0,0.9,1.1,1.8c2.3,2,5.9,1.9,8.4,0.9s5-3.2,7.3-6.5s3.4-6,3.3-8.5l0,0c-0.1-1.9-0.4-4.1-1.9-4.5&#xA;&#9;&#9;C201,350.7,200.8,350.7,200.5,350.7z"/>
	<path class="st6_marketing-campaign-70" d="M168.6,260.3c-0.8,0-1.4-0.5-1.7-1.2l-11.4-29.4c-0.4-0.9,0.1-2,1-2.4c0.9-0.4,2,0.1,2.4,1.1l11.4,29.3&#xA;&#9;&#9;c0.4,0.9-0.1,2-1,2.4C169.1,260.2,168.9,260.3,168.6,260.3z"/>
	<path class="st6_marketing-campaign-70" d="M137.3,277.4c-0.5,0-1-0.2-1.3-0.6l-35.2-37.3c-0.6-0.8-0.5-1.9,0.3-2.6c0.7-0.6,1.7-0.6,2.4,0.1l35.2,37.3&#xA;&#9;&#9;c0.7,0.7,0.7,1.9-0.1,2.6c0,0,0,0,0,0C138.2,277.2,137.7,277.4,137.3,277.4z"/>
	<path class="st6_marketing-campaign-70" d="M107.5,306.7c-0.3,0-0.6-0.1-0.8-0.2L83,294.4c-0.9-0.5-1.3-1.6-0.8-2.5s1.6-1.3,2.5-0.8l23.7,12.1&#xA;&#9;&#9;c0.9,0.5,1.2,1.6,0.8,2.5C108.9,306.3,108.2,306.7,107.5,306.7L107.5,306.7z"/>
	<path class="st6_marketing-campaign-70" d="M331.1,260.3c-0.2,0-0.5,0-0.7-0.1c-0.9-0.4-1.4-1.4-1-2.4l11.4-29.3c0.4-0.9,1.4-1.4,2.4-1.1&#xA;&#9;&#9;c0.9,0.4,1.4,1.4,1,2.4l0,0l-11.4,29.4C332.5,259.8,331.9,260.3,331.1,260.3z"/>
	<path class="st6_marketing-campaign-70" d="M362.5,277.4c-0.5,0-0.9-0.2-1.2-0.5c-0.7-0.7-0.8-1.8-0.1-2.6c0,0,0,0,0,0l35.2-37.4c0.7-0.7,1.9-0.8,2.6-0.1&#xA;&#9;&#9;c0.7,0.7,0.8,1.9,0.1,2.6l0,0l-35.2,37.3C363.5,277.2,363,277.4,362.5,277.4z"/>
	<path class="st6_marketing-campaign-70" d="M392.2,306.7c-1,0-1.8-0.8-1.8-1.9c0-0.7,0.4-1.3,1-1.6l23.7-12.1c0.9-0.5,2-0.1,2.5,0.8s0.1,2-0.8,2.5&#xA;&#9;&#9;L393,306.5C392.8,306.6,392.5,306.7,392.2,306.7z"/>
</g>
<g id="rocket_marketing-campaign-70">
	<path class="st3_marketing-campaign-70" d="M232.1,274.4c0,0-7.1,13.2-7.9,35s20.7,79.2,20.7,79.2h10.3c0,0,14.7-37.4,19.2-67c4.6-29.9-6.6-47.2-6.6-47.2&#xA;&#9;&#9;L232.1,274.4z"/>
	<path class="st1_marketing-campaign-70" d="M267.8,274.4c0,0,11.1,17.3,6.6,47.2c-4.5,29.6-19.2,67-19.2,67h-10.3c0,0-21.5-57.4-20.7-79.2s7.9-35,7.9-35&#xA;&#9;&#9;L267.8,274.4 M267.7,270.7h-35.7c-1.3,0-2.6,0.7-3.2,1.9c-0.3,0.6-7.5,14.2-8.4,36.6s20,78.2,20.9,80.6c0.5,1.4,1.9,2.4,3.4,2.4&#xA;&#9;&#9;h10.3c1.5,0,2.9-0.9,3.4-2.3c0.6-1.5,14.9-38.1,19.4-67.8c4.7-30.9-6.6-48.9-7.1-49.7C270.1,271.3,269,270.7,267.7,270.7&#xA;&#9;&#9;L267.7,270.7z"/>
	<rect x="232.1" y="250" class="st1_marketing-campaign-70" width="35.6" height="24.3"/>
	<path class="st1_marketing-campaign-70" d="M267.8,276.2h-35.7c-1,0-1.8-0.8-1.8-1.8V250c0-1,0.8-1.8,1.8-1.8l0,0h35.7c1,0,1.8,0.8,1.8,1.8v24.3&#xA;&#9;&#9;C269.6,275.3,268.8,276.2,267.8,276.2C267.8,276.2,267.8,276.2,267.8,276.2z M233.9,272.5h32v-20.7h-32L233.9,272.5z"/>
	<polygon class="st2_marketing-campaign-70 targetColor" points="227.4,214.6 197,243.8 205.8,292.8 221.9,252.2 231.4,248.6 &#9;" style="fill: rgb(104, 225, 253);"/>
	<path class="st1_marketing-campaign-70" d="M205.8,294.6h-0.2c-0.8-0.1-1.5-0.7-1.6-1.5l-8.8-48.9c-0.1-0.6,0.1-1.2,0.5-1.6l30.4-29.2&#xA;&#9;&#9;c0.7-0.7,1.9-0.7,2.6,0.1c0.3,0.3,0.4,0.6,0.5,1l4.1,34c0.1,0.8-0.4,1.6-1.2,1.9l-8.8,3.4l-15.8,39.7&#xA;&#9;&#9;C207.2,294.1,206.6,294.6,205.8,294.6z M198.9,244.5l7.5,41.7l13.8-34.6c0.2-0.5,0.5-0.8,1-1l8.2-3.2l-3.4-28.9L198.9,244.5z"/>
	<polygon class="st2_marketing-campaign-70 targetColor" points="272.5,214.6 302.9,243.8 294,292.8 277.9,252.2 268.4,248.6 &#9;" style="fill: rgb(104, 225, 253);"/>
	<path class="st1_marketing-campaign-70" d="M294,294.6c-0.8,0-1.4-0.5-1.7-1.2l-15.8-39.8l-8.8-3.4c-0.8-0.3-1.2-1.1-1.1-1.9l4.1-34&#xA;&#9;&#9;c0.1-0.7,0.5-1.3,1.2-1.5c0.7-0.2,1.4-0.1,1.9,0.4l30.4,29.2c0.4,0.4,0.6,1,0.5,1.6l-8.8,48.9c-0.1,0.8-0.8,1.4-1.6,1.5L294,294.6z&#xA;&#9;&#9; M270.4,247.4l8.2,3.2c0.5,0.2,0.8,0.5,1,1l13.8,34.6l7.5-41.7l-27-26L270.4,247.4z"/>
	<path class="st2_marketing-campaign-70 targetColor" d="M276.4,260.2c5.7-28,9.2-58.3,9.2-78.4c0-43.1-35.7-72.5-35.7-72.5s-35.7,29.4-35.7,72.5&#xA;&#9;&#9;c0,20.1,3.5,50.4,9.2,78.4H276.4z" style="fill: rgb(104, 225, 253);"/>
	<path class="st1_marketing-campaign-70" d="M276.4,262.1h-53c-0.9,0-1.6-0.6-1.8-1.5c-5.7-27.9-9.3-58-9.3-78.8c0-43.5,36-73.6,36.4-73.9&#xA;&#9;&#9;c0.7-0.6,1.7-0.6,2.3,0c0.4,0.3,36.4,30.4,36.4,73.9c0,20.7-3.5,50.9-9.2,78.8C278,261.4,277.3,262.1,276.4,262.1z M224.9,258.4h50&#xA;&#9;&#9;c5.4-26.9,8.9-56.8,8.9-76.6c0-37.3-27.8-64.5-33.9-70c-6.1,5.5-33.9,32.7-33.9,70.1C216,201.6,219.5,231.5,224.9,258.4&#xA;&#9;&#9;L224.9,258.4z"/>
	<circle class="st0_marketing-campaign-70" cx="249.9" cy="174.8" r="17.8"/>
	<path class="st1_marketing-campaign-70" d="M249.9,194.5c-10.9,0-19.7-8.8-19.7-19.7c0-10.9,8.8-19.7,19.7-19.7c10.9,0,19.7,8.8,19.7,19.7c0,0,0,0,0,0&#xA;&#9;&#9;C269.6,185.7,260.8,194.4,249.9,194.5z M249.9,158.8c-8.8,0-16,7.2-16,16s7.2,16,16,16s16-7.2,16-16v0&#xA;&#9;&#9;C265.9,166,258.8,158.8,249.9,158.8z"/>
	<path class="st4_marketing-campaign-70" d="M244.9,274.9c0,0-5.8,9.1-5.8,25.1c0,14.5,10.5,58,10.5,58s12.4-52.8,11.2-64.8s-5.9-18.4-5.9-18.4H244.9z"/>
	<path class="st1_marketing-campaign-70" d="M249.6,359.9c-0.8,0-1.6-0.6-1.8-1.4c-0.4-1.8-10.6-44-10.6-58.5c0-16.4,5.8-25.7,6-26.1&#xA;&#9;&#9;c0.3-0.5,0.9-0.8,1.6-0.9h10.1c0.6,0,1.1,0.3,1.5,0.8c0.2,0.3,4.9,7,6.2,19.3c1.3,12.1-10.7,63.2-11.2,65.4&#xA;&#9;&#9;C251.2,359.3,250.5,359.9,249.6,359.9L249.6,359.9z M245.9,276.7c-1.3,2.5-5,10.8-5,23.3c0,10.4,5.7,36.7,8.7,49.9&#xA;&#9;&#9;c3.4-15.1,10.3-47.6,9.4-56.4c-0.5-5.9-2.2-11.6-5.1-16.8L245.9,276.7z"/>
</g>
</svg>